<?xml version="1.0" encoding="UTF-8"?>
<svg width="36px" height="24px" viewBox="0 0 36 24" version="1.1" xmlns="http://www.w3.org/2000/svg">
  <rect width="36" height="24" rx="4" fill="#FFFFFF" stroke="#E6E6E6" stroke-width="1"/>
  <path d="M13.2,10.5 C12.9,10.9 12.4,11.2 12,11.2 C11.9,10.8 12.1,10.3 12.3,10 C12.6,9.6 13.1,9.3 13.5,9.3 C13.5,9.7 13.4,10.2 13.2,10.5 Z" fill="#000000"/>
  <path d="M13.5,11.3 C12.9,11.3 12.4,11.7 12.1,11.7 C11.7,11.7 11.3,11.3 10.6,11.3 C9.8,11.3 9,11.9 8.6,12.7 C7.8,14.3 8.4,16.7 9.2,18 C9.6,18.6 10,19.3 10.6,19.3 C11.1,19.3 11.3,18.9 11.9,18.9 C12.5,18.9 12.7,19.3 13.2,19.3 C13.8,19.3 14.2,18.6 14.6,18 C15,17.3 15.2,16.7 15.2,16.6 C15.2,16.6 14.2,16.2 14.2,15 C14.2,14 15,13.5 15,13.5 C14.6,12.9 14,11.3 13.5,11.3 Z" fill="#000000"/>
  <path d="M20.2,14.1 L19.1,14.1 L18.5,16.1 L17.9,14.1 L16.8,14.1 L17.8,17.2 L16.9,19.7 L17.9,19.7 L19.9,14.1 L20.2,14.1 Z" fill="#000000"/>
  <path d="M23.2,17.8 C23,18.2 22.6,18.5 22.1,18.5 C21.4,18.5 20.9,18 20.9,17.2 C20.9,16.4 21.4,15.9 22.1,15.9 C22.6,15.9 22.9,16.2 23.1,16.5 L24,16 C23.7,15.4 23,15 22.2,15 C21,15 20,15.9 20,17.2 C20,18.5 21,19.4 22.2,19.4 C23,19.4 23.7,19 24,18.4 L23.2,17.8 Z" fill="#000000"/>
  <path d="M27.2,19.3 L27.2,15.1 L26.3,15.1 L26.3,17.8 C26.3,18.3 26,18.6 25.5,18.6 C25,18.6 24.8,18.3 24.8,17.8 L24.8,15.1 L23.9,15.1 L23.9,18 C23.9,18.9 24.4,19.4 25.2,19.4 C25.7,19.4 26.1,19.2 26.3,18.8 L26.3,19.3 L27.2,19.3 Z" fill="#000000"/>
</svg>
