<?xml version="1.0" encoding="UTF-8"?>
<svg width="36px" height="24px" viewBox="0 0 36 24" version="1.1" xmlns="http://www.w3.org/2000/svg">
  <rect width="36" height="24" rx="4" fill="#FFFFFF" stroke="#E6E6E6" stroke-width="1"/>
  <rect x="6" y="6" width="24" height="12" rx="1" fill="#00356B"/>
  <path d="M9,10 L9,14 L10,14 L10,12.5 L11.5,12.5 C12.3284271,12.5 13,11.8284271 13,11 C13,10.1715729 12.3284271,9.5 11.5,9.5 L9,9.5 L9,10 Z M10,10 L11.5,10 C11.7761424,10 12,10.2238576 12,10.5 C12,10.7761424 11.7761424,11 11.5,11 L10,11 L10,10 Z" fill="#FFFFFF"/>
  <path d="M14,10 L14,14 L17,14 L17,13 L15,13 L15,12.5 L16.5,12.5 L16.5,11.5 L15,11.5 L15,11 L17,11 L17,10 L14,10 Z" fill="#FFFFFF"/>
  <path d="M18,10 C17.4477153,10 17,10.4477153 17,11 L17,13 C17,13.5522847 17.4477153,14 18,14 L20,14 C20.5522847,14 21,13.5522847 21,13 L21,11 C21,10.4477153 20.5522847,10 20,10 L18,10 Z M18,11 L20,11 L20,13 L18,13 L18,11 Z" fill="#FFFFFF"/>
  <path d="M22,10 L22,14 L23,14 L23,12.5 L24.5,12.5 C25.3284271,12.5 26,11.8284271 26,11 C26,10.1715729 25.3284271,9.5 24.5,9.5 L22,9.5 L22,10 Z M23,10 L24.5,10 C24.7761424,10 25,10.2238576 25,10.5 C25,10.7761424 24.7761424,11 24.5,11 L23,11 L23,10 Z" fill="#FFFFFF"/>
</svg>
