<?xml version="1.0" encoding="UTF-8"?>
<svg width="36px" height="24px" viewBox="0 0 36 24" version="1.1" xmlns="http://www.w3.org/2000/svg">
  <rect width="36" height="24" rx="4" fill="#FFFFFF" stroke="#E6E6E6" stroke-width="1"/>
  <rect x="6" y="6" width="24" height="12" rx="1" fill="#04337B"/>
  <path d="M10,10 L10,14 L11.5,14 C12.8807119,14 14,12.8807119 14,11.5 C14,10.1192881 12.8807119,9 11.5,9 L9,9 L9,15 L10,15 L10,10 Z M11.5,10 C12.3284271,10 13,10.6715729 13,11.5 C13,12.3284271 12.3284271,13 11.5,13 L11,13 L11,10 L11.5,10 Z" fill="#FFFFFF"/>
  <path d="M15,9 L15,15 L16,15 L16,9 L15,9 Z" fill="#FFFFFF"/>
  <path d="M18,9 L20,9 C21.6568542,9 23,10.3431458 23,12 C23,13.6568542 21.6568542,15 20,15 L18,15 L18,9 Z M19,10 L19,14 L20,14 C21.1045695,14 22,13.1045695 22,12 C22,10.8954305 21.1045695,10 20,10 L19,10 Z" fill="#FFFFFF"/>
  <path d="M24,9 L24,15 L25,15 L25,13 L26.5,13 C27.3284271,13 28,12.3284271 28,11.5 C28,10.6715729 27.3284271,10 26.5,10 L24,10 L24,9 Z M25,10 L26.5,10 C26.7761424,10 27,10.2238576 27,10.5 C27,10.7761424 26.7761424,11 26.5,11 L25,11 L25,10 Z" fill="#FFFFFF"/>
</svg>
