<?xml version="1.0" encoding="UTF-8"?>
<svg width="36px" height="24px" viewBox="0 0 36 24" version="1.1" xmlns="http://www.w3.org/2000/svg">
  <rect width="36" height="24" rx="4" fill="#FFFFFF" stroke="#E6E6E6" stroke-width="1"/>
  <path d="M19.2,13.1 L19.2,15.6 L18.2,15.6 L18.2,9.4 L20.9,9.4 C21.5,9.4 22.1,9.6 22.5,10 C22.9,10.4 23.1,10.9 23.1,11.5 C23.1,12.1 22.9,12.6 22.5,13 C22.1,13.4 21.5,13.6 20.9,13.6 L19.2,13.1 Z M19.2,10.3 L19.2,12.2 L21,12.2 C21.3,12.2 21.5,12.1 21.7,11.9 C21.9,11.7 22,11.5 22,11.2 C22,10.9 21.9,10.7 21.7,10.5 C21.5,10.3 21.3,10.2 21,10.2 L19.2,10.3 Z" fill="#5F6368"/>
  <path d="M23.5,12.5 C23.5,11.7 23.7,11 24.2,10.5 C24.7,10 25.3,9.7 26.1,9.7 C26.9,9.7 27.5,10 28,10.5 C28.5,11 28.7,11.7 28.7,12.5 C28.7,13.3 28.5,14 28,14.5 C27.5,15 26.9,15.3 26.1,15.3 C25.3,15.3 24.7,15 24.2,14.5 C23.7,14 23.5,13.3 23.5,12.5 Z M24.5,12.5 C24.5,13 24.6,13.5 24.9,13.8 C25.2,14.1 25.6,14.3 26.1,14.3 C26.6,14.3 27,14.1 27.3,13.8 C27.6,13.5 27.7,13 27.7,12.5 C27.7,12 27.6,11.5 27.3,11.2 C27,10.9 26.6,10.7 26.1,10.7 C25.6,10.7 25.2,10.9 24.9,11.2 C24.6,11.5 24.5,12 24.5,12.5 Z" fill="#5F6368"/>
  <path d="M32.7,9.8 L32.7,15.6 L31.7,15.6 L31.7,14.8 C31.3,15.4 30.7,15.7 30,15.7 C29.3,15.7 28.7,15.4 28.3,14.9 C27.9,14.4 27.7,13.7 27.7,12.9 C27.7,12.1 27.9,11.4 28.3,10.9 C28.7,10.4 29.3,10.1 30,10.1 C30.7,10.1 31.3,10.4 31.7,11 L31.7,9.8 L32.7,9.8 Z M28.7,12.9 C28.7,13.4 28.8,13.9 29.1,14.2 C29.4,14.5 29.7,14.7 30.1,14.7 C30.5,14.7 30.9,14.5 31.2,14.2 C31.5,13.9 31.6,13.4 31.6,12.9 C31.6,12.4 31.5,11.9 31.2,11.6 C30.9,11.3 30.5,11.1 30.1,11.1 C29.7,11.1 29.3,11.3 29.1,11.6 C28.8,11.9 28.7,12.3 28.7,12.9 Z" fill="#5F6368"/>
  <path d="M10.4,12.6 C10.4,12.2 10.4,11.8 10.4,11.4 C10.4,11 10.4,10.6 10.4,10.2 L7.5,10.2 L7.5,11.6 L9.2,11.6 C9.1,12.1 8.8,12.5 8.4,12.8 L8.4,13.7 L9.5,13.7 C10.1,13.1 10.4,12.4 10.4,12.6 Z" fill="#4285F4"/>
  <path d="M7.5,14.8 C8.4,14.8 9.1,14.5 9.6,14 L8.5,13.1 C8.2,13.3 7.9,13.4 7.5,13.4 C6.8,13.4 6.2,12.9 6,12.3 L4.9,12.3 L4.9,13.2 C5.4,14.2 6.4,14.8 7.5,14.8 Z" fill="#34A853"/>
  <path d="M6,12.3 C5.9,12.1 5.9,11.8 5.9,11.5 C5.9,11.2 5.9,10.9 6,10.7 L6,9.8 L4.9,9.8 C4.7,10.3 4.6,10.9 4.6,11.5 C4.6,12.1 4.7,12.7 4.9,13.2 L6,12.3 Z" fill="#FBBC05"/>
  <path d="M7.5,9.6 C7.9,9.6 8.3,9.8 8.6,10 L9.6,9 C9,8.5 8.3,8.2 7.5,8.2 C6.4,8.2 5.4,8.8 4.9,9.8 L6,10.7 C6.2,10.1 6.8,9.6 7.5,9.6 Z" fill="#EA4335"/>
</svg>
