<?xml version="1.0" encoding="UTF-8"?>
<svg width="36px" height="24px" viewBox="0 0 36 24" version="1.1" xmlns="http://www.w3.org/2000/svg">
  <rect width="36" height="24" rx="4" fill="#FFFFFF" stroke="#E6E6E6" stroke-width="1"/>
  <rect x="6" y="6" width="24" height="12" rx="1" fill="#EB6F93"/>
  <path d="M10,10 L10,14 L14,14 L14,13 L11,13 L11,10 L10,10 Z" fill="#FFFFFF"/>
  <path d="M15,10 C14.4477153,10 14,10.4477153 14,11 L14,13 C14,13.5522847 14.4477153,14 15,14 L17,14 C17.5522847,14 18,13.5522847 18,13 L18,11 C18,10.4477153 17.5522847,10 17,10 L15,10 Z M15,11 L17,11 L17,13 L15,13 L15,11 Z" fill="#FFFFFF"/>
  <path d="M19,10 L19,14 L20,14 L20,12.5 L21.5,12.5 C22.3284271,12.5 23,11.8284271 23,11 C23,10.1715729 22.3284271,9.5 21.5,9.5 L19,9.5 L19,10 Z M20,10 L21.5,10 C21.7761424,10 22,10.2238576 22,10.5 C22,10.7761424 21.7761424,11 21.5,11 L20,11 L20,10 Z" fill="#FFFFFF"/>
  <path d="M24,10 L24,14 L25,14 L25,12 L26,12 L26,11 L25,11 L25,10 L24,10 Z" fill="#FFFFFF"/>
  <path d="M27,10 L27,14 L28,14 L28,10 L27,10 Z" fill="#FFFFFF"/>
</svg>
